<svg xmlns="http://www.w3.org/2000/svg" xmlns:xlink="http://www.w3.org/1999/xlink" viewBox="0 0 107.25 53.48" preserveAspectRatio="xMidYMid"><style>.cls-1{fill:#eedb72}@media all and (min-width:640px){#centered{display:none}#left-aligned{display:block}}</style><title>KYMO Logo</title><defs><g id="logo" data-name="Laag 2"><path class="cls-1" d="M29 14.25l-3-3.07a.42.42 0 0 0-.59 0l-14 14a.42.42 0 0 0 0 .59l3.07 3.07a.42.42 0 0 0 .59 0l4.9-4.9a.42.42 0 0 1 .59 0l4.9 4.9a.42.42 0 0 0 .59 0L29 25.81a.42.42 0 0 0 0-.59l-4.9-4.9a.42.42 0 0 1 0-.59l4.9-4.9a.42.42 0 0 0 0-.58zM25.38.2L15 10.59a.42.42 0 0 1-.59 0L4 .2a.42.42 0 0 0-.59 0L.36 3.27a.42.42 0 0 0 0 .59l10.39 10.39a.42.42 0 0 1 0 .59L.36 25.22a.42.42 0 0 0 0 .59l3.07 3.07a.42.42 0 0 0 .59 0l25-25a.42.42 0 0 0 0-.59L26 .2a.42.42 0 0 0-.62 0zM0 39.46A.49.49 0 0 1 .51 39h2.41a.5.5 0 0 1 .49.49v5.41L8 39.17a.61.61 0 0 1 .37-.17H11a.48.48 0 0 1 .37.76l-4.81 6 5.25 6.83a.48.48 0 0 1-.39.76H8.53a.56.56 0 0 1-.37-.14l-4.75-6.47v6.13a.5.5 0 0 1-.49.49H.51a.49.49 0 0 1-.51-.49zM17.77 46.43l-4.54-6.87a.38.38 0 0 1 .33-.6h2.67a.41.41 0 0 1 .33.19l2.86 4.22 2.86-4.22a.38.38 0 0 1 .32-.15h2.67a.38.38 0 0 1 .33.6L21 46.41V53a.4.4 0 0 1-.39.39h-2.45a.39.39 0 0 1-.39-.39zM28.34 39.09a.39.39 0 0 1 .37-.33H29a.45.45 0 0 1 .35.21l4.77 8.89L39 39a.45.45 0 0 1 .35-.21h.33a.39.39 0 0 1 .37.33l2.32 13.82a.38.38 0 0 1-.39.45h-2.45a.42.42 0 0 1-.39-.33l-.92-6.36-3.46 6.66a.48.48 0 0 1-.35.23H34a.45.45 0 0 1-.35-.23l-3.48-6.66-.94 6.3a.4.4 0 0 1-.39.33h-2.43a.38.38 0 0 1-.39-.45zM51.3 38.76a7.4 7.4 0 1 1-7.38 7.42 7.39 7.39 0 0 1 7.38-7.42zm0 11.52a4.11 4.11 0 1 0-4.09-4.09 4.12 4.12 0 0 0 4.09 4.09zM72.08 38.76a7.4 7.4 0 1 1-7.38 7.42 7.39 7.39 0 0 1 7.38-7.42zm0 11.52a4.11 4.11 0 1 0-4.08-4.1 4.12 4.12 0 0 0 4.08 4.1zM82 39.13a.39.39 0 0 1 .39-.37h.51l8.21 7.9v-7.3a.39.39 0 0 1 .39-.39h2.47a.41.41 0 0 1 .39.39V53.2a.39.39 0 0 1-.39.37h-.33a.61.61 0 0 1-.27-.1l-8.15-8.17V53a.39.39 0 0 1-.39.39h-2.47A.41.41 0 0 1 82 53zM97.87 39.36a.39.39 0 0 1 .39-.39h8.51a.39.39 0 0 1 .39.39v2.24a.39.39 0 0 1-.39.39h-5.7v2.55h4.69a.41.41 0 0 1 .39.39v2.24a.39.39 0 0 1-.39.39h-4.69v2.78h5.7a.39.39 0 0 1 .39.39V53a.39.39 0 0 1-.39.39h-8.51a.39.39 0 0 1-.39-.39z"/><circle class="cls-1" cx="42.63" cy="6.95" r="3.66"/><circle class="cls-1" cx="64.59" cy="6.95" r="3.66"/><circle class="cls-1" cx="53.61" cy="25.25" r="3.66"/><path class="cls-1" d="M53.21 11.84l-8.36 16.87a.42.42 0 0 1-.37.23h-4.86a.42.42 0 0 1-.37-.6l14-28a.42.42 0 0 1 .74 0L68 28.32a.42.42 0 0 1-.37.6h-4.84a.42.42 0 0 1-.37-.23L54 11.84a.42.42 0 0 0-.79 0z"/><rect class="cls-1" x="88.21" y=".94" width="5.17" height="31.02" rx=".42" ry=".42" transform="rotate(-45 90.795 16.452)"/><path class="cls-1" d="M101 18.95A9.45 9.45 0 0 0 88.3 6.22a.42.42 0 0 1-.49-.07L84.65 3a.43.43 0 0 1 .06-.66 14.62 14.62 0 0 1 20.21 20.21.43.43 0 0 1-.66.06l-3.16-3.16a.42.42 0 0 1-.1-.5zM83.35 16.41a9.45 9.45 0 0 0 7.48 7.48.4.4 0 0 1 .17.11l4.3 4.3a.42.42 0 0 1-.22.72 14.84 14.84 0 0 1-4 .14 14.62 14.62 0 0 1-12.9-17.05.42.42 0 0 1 .72-.22l4.3 4.3a.4.4 0 0 1 .15.22z"/></g></defs><svg viewBox="0 0 107.25 53.48" id="centered" preserveAspectRatio="xMidYMid"><use xlink:href="#logo"/></svg></svg>