<svg xmlns="http://www.w3.org/2000/svg" viewBox="0 0 141.73 141.73"><defs><style>.cls-1{fill:#eedb72;}</style></defs><title>LOGOTekengebied 5 kopie 2</title><g id="Laag_2" data-name="Laag 2"><path class="cls-1" d="M46.31,59.86l-3.07-3.07a.42.42,0,0,0-.59,0l-14,14a.42.42,0,0,0,0,.59l3.07,3.07a.42.42,0,0,0,.59,0l4.9-4.9a.42.42,0,0,1,.59,0l4.9,4.9a.42.42,0,0,0,.59,0l3.07-3.07a.42.42,0,0,0,0-.59l-4.9-4.9a.42.42,0,0,1,0-.59l4.9-4.9A.42.42,0,0,0,46.31,59.86Z"/><path class="cls-1" d="M42.65,45.82,32.26,56.2a.42.42,0,0,1-.59,0L21.29,45.82a.42.42,0,0,0-.59,0l-3.07,3.07a.42.42,0,0,0,0,.59L28,59.86a.42.42,0,0,1,0,.59L17.63,70.83a.42.42,0,0,0,0,.59l3.07,3.07a.42.42,0,0,0,.59,0l25-25a.42.42,0,0,0,0-.59l-3.07-3.07A.42.42,0,0,0,42.65,45.82Z"/><path class="cls-1" d="M17.28,85.07a.49.49,0,0,1,.49-.49h2.41a.5.5,0,0,1,.49.49v5.41l4.57-5.7a.61.61,0,0,1,.39-.21h2.59a.48.48,0,0,1,.37.76l-4.81,6L29,98.19a.48.48,0,0,1-.39.76H25.8a.56.56,0,0,1-.37-.14l-4.75-6.46v6.13a.5.5,0,0,1-.49.49H17.78a.49.49,0,0,1-.49-.49Z"/><path class="cls-1" d="M35,92l-4.54-6.87a.38.38,0,0,1,.33-.6h2.67a.41.41,0,0,1,.33.19L36.68,89l2.86-4.22a.38.38,0,0,1,.33-.19h2.67a.38.38,0,0,1,.33.6L38.27,92v6.56a.4.4,0,0,1-.39.39H35.43a.39.39,0,0,1-.39-.39Z"/><path class="cls-1" d="M45.61,84.7a.39.39,0,0,1,.37-.33h.33a.45.45,0,0,1,.35.21l4.77,8.89h0l4.77-8.89a.45.45,0,0,1,.35-.21h.33a.39.39,0,0,1,.37.33l2.32,13.82a.38.38,0,0,1-.39.45H56.8a.42.42,0,0,1-.39-.33l-.92-6.36h0L52,99a.48.48,0,0,1-.35.23h-.37a.45.45,0,0,1-.35-.23l-3.48-6.66h0l-.91,6.36a.4.4,0,0,1-.39.33H43.68a.38.38,0,0,1-.39-.45Z"/><path class="cls-1" d="M68.57,84.37a7.4,7.4,0,1,1-7.38,7.42A7.39,7.39,0,0,1,68.57,84.37Zm0,11.52a4.11,4.11,0,1,0-4.09-4.09A4.12,4.12,0,0,0,68.57,95.89Z"/><path class="cls-1" d="M89.34,84.37A7.4,7.4,0,1,1,82,91.8,7.39,7.39,0,0,1,89.34,84.37Zm0,11.52a4.11,4.11,0,1,0-4.09-4.09A4.12,4.12,0,0,0,89.34,95.89Z"/><path class="cls-1" d="M99.22,84.74a.39.39,0,0,1,.39-.37h.51l8.21,7.9h0V85a.39.39,0,0,1,.39-.39h2.47a.41.41,0,0,1,.39.39V98.81a.39.39,0,0,1-.39.37h-.33a.61.61,0,0,1-.27-.1l-8.12-8.17h0v7.67a.39.39,0,0,1-.39.39H99.63a.41.41,0,0,1-.39-.39Z"/><path class="cls-1" d="M115.14,85a.39.39,0,0,1,.39-.39H124a.39.39,0,0,1,.39.39v2.24a.39.39,0,0,1-.39.39h-5.7v2.55H123a.41.41,0,0,1,.39.39v2.24a.39.39,0,0,1-.39.39h-4.69V96H124a.39.39,0,0,1,.39.39v2.24A.39.39,0,0,1,124,99h-8.51a.39.39,0,0,1-.39-.39Z"/><circle class="cls-1" cx="59.89" cy="52.56" r="3.66"/><circle class="cls-1" cx="81.86" cy="52.56" r="3.66"/><circle class="cls-1" cx="70.87" cy="70.87" r="3.66"/><path class="cls-1" d="M70.48,57.45,62.11,74.32a.42.42,0,0,1-.37.23H56.89a.42.42,0,0,1-.37-.6l14-28a.42.42,0,0,1,.74,0l14,27.94a.42.42,0,0,1-.37.6l-4.84,0a.42.42,0,0,1-.37-.23L71.22,57.45A.42.42,0,0,0,70.48,57.45Z"/><rect class="cls-1" x="105.48" y="46.55" width="5.17" height="31.02" rx="0.42" ry="0.42" transform="translate(-12.23 94.59) rotate(-45)"/><path class="cls-1" d="M118.29,64.56a9.45,9.45,0,0,0-12.73-12.73.42.42,0,0,1-.49-.07l-3.16-3.16a.43.43,0,0,1,.06-.66,14.62,14.62,0,0,1,20.21,20.21.43.43,0,0,1-.66.06L118.36,65A.42.42,0,0,1,118.29,64.56Z"/><path class="cls-1" d="M100.62,62a9.45,9.45,0,0,0,7.48,7.48.4.4,0,0,1,.21.11l4.3,4.3a.42.42,0,0,1-.22.72A14.62,14.62,0,0,1,95.49,57.73a.42.42,0,0,1,.72-.22l4.3,4.3A.4.4,0,0,1,100.62,62Z"/></g></svg>